<svg width="1030.2250244140623px" height="138.8298828125px" xmlns="http://www.w3.org/2000/svg" viewBox="-265.11251220703116 5.585058593750006 1030.2250244140623 138.8298828125" style="background: rgba(0, 0, 0, 0);" preserveAspectRatio="xMidYMid"><defs><linearGradient id="editing-sticker-gradient" x1="0.5" y1="0.2" x2="0.5" y2="0.8"><stop offset="0" stop-color="#fd9"></stop><stop offset="1" stop-color="#9df"></stop></linearGradient><filter id="editing-sticker" x="-100%" y="-100%" width="300%" height="300%"><feMorphology operator="erode" radius="1" in="SourceAlpha" result="alpha-erode"></feMorphology><feConvolveMatrix order="3,3" divisor="1" kernelMatrix="0 1 0 1 1 1 0 1 0" in="alpha-erode" result="alpha-round"></feConvolveMatrix><feMorphology operator="dilate" radius="3.5" in="alpha-round" result="dilate-shadow"></feMorphology><feGaussianBlur in="dilate-shadow" stdDeviation="1.5" result="shadow"></feGaussianBlur><feFlood flood-color="#fff" result="flood-sticker"></feFlood><feComposite operator="in" in="flood-sticker" in2="alpha-round" result="comp-sticker"></feComposite><feMorphology operator="dilate" radius="3" in="comp-sticker" result="morph-sticker"></feMorphology><feConvolveMatrix order="3,3" divisor="1" kernelMatrix="0 1 0 1 1 1 0 1 0" in="morph-sticker" result="sticker"></feConvolveMatrix><feMerge><feMergeNode in="shadow"></feMergeNode><feMergeNode in="sticker"></feMergeNode><feMergeNode in="SourceGraphic"></feMergeNode></feMerge></filter></defs><g filter="url(#editing-sticker)"><g transform="translate(-121.55499881505966, 107.29000091552734)"><path d="M49.54-25.54L49.54-16L46.34-16L46.34-3.20L46.34-3.20Q43.52-1.60 38.11-0.35L38.11-0.35L38.11-0.35Q32.70 0.90 26.43 0.90L26.43 0.90L26.43 0.90Q14.46 0.90 7.68-5.41L7.68-5.41L7.68-5.41Q0.90-11.71 0.90-24.90L0.90-24.90L0.90-24.90Q0.90-38.40 7.65-44.54L7.65-44.54L7.65-44.54Q14.40-50.69 26.94-50.69L26.94-50.69L26.94-50.69Q33.02-50.69 38.34-49.41L38.34-49.41L38.34-49.41Q43.65-48.13 46.34-46.53L46.34-46.53L46.34-31.23L30.34-31.23L30.34-34.24L30.34-34.24Q30.34-36.93 29.22-38.11L29.22-38.11L29.22-38.11Q28.10-39.30 25.66-39.30L25.66-39.30L25.66-39.30Q23.23-39.30 22.11-38.11L22.11-38.11L22.11-38.11Q20.99-36.93 20.99-34.24L20.99-34.24L20.99-15.55L20.99-15.55Q20.99-12.86 22.11-11.68L22.11-11.68L22.11-11.68Q23.23-10.50 25.66-10.50L25.66-10.50L25.66-10.50Q28.10-10.50 29.22-11.68L29.22-11.68L29.22-11.68Q30.34-12.86 30.34-15.55L30.34-15.55L30.34-16L26.88-16L26.88-25.54L49.54-25.54ZM78.53-36.48L78.53-36.48Q79.81-36.48 80.96-36.22L80.96-36.22L80.96-36.22Q82.11-35.97 82.88-35.58L82.88-35.58L82.88-23.36L82.88-23.36Q80.26-24.45 77.25-24.45L77.25-24.45L77.25-24.45Q73.22-24.45 71.04-22.34L71.04-22.34L71.04-22.34Q68.86-20.22 68.86-16.06L68.86-16.06L68.86-10.50L74.62-10.50L74.62 0L51.33 0L51.33-10.50L54.14-10.50L54.14-25.09L51.33-25.09L51.33-35.58L68.86-35.58L68.86-30.91L68.86-30.91Q70.66-33.60 72.96-35.04L72.96-35.04L72.96-35.04Q75.26-36.48 78.53-36.48L78.53-36.48ZM104.00 0.90L104.00 0.90Q94.91 0.90 89.79-3.87L89.79-3.87L89.79-3.87Q84.67-8.64 84.67-17.79L84.67-17.79L84.67-17.79Q84.67-26.94 89.79-31.71L89.79-31.71L89.79-31.71Q94.91-36.48 104.00-36.48L104.00-36.48L104.00-36.48Q113.02-36.48 117.02-31.78L117.02-31.78L117.02-31.78Q121.02-27.07 121.02-20.10L121.02-20.10L121.02-15.49L100.29-15.49L100.29-15.10L100.29-15.10Q100.29-12.74 101.70-11.62L101.70-11.62L101.70-11.62Q103.10-10.50 106.37-10.50L106.37-10.50L106.37-10.50Q110.27-10.50 113.79-11.07L113.79-11.07L113.79-11.07Q117.31-11.65 119.94-12.54L119.94-12.54L119.94-2.30L119.94-2.30Q117.70-1.09 113.38-0.10L113.38-0.10L113.38-0.10Q109.06 0.90 104.00 0.90L104.00 0.90ZM100.29-22.53L107.71-22.53L107.71-23.30L107.71-23.30Q107.71-25.47 106.78-26.43L106.78-26.43L106.78-26.43Q105.86-27.39 104.00-27.39L104.00-27.39L104.00-27.39Q102.14-27.39 101.22-26.40L101.22-26.40L101.22-26.40Q100.29-25.41 100.29-23.30L100.29-23.30L100.29-22.53ZM142.02 0.90L142.02 0.90Q132.93 0.90 127.81-3.87L127.81-3.87L127.81-3.87Q122.69-8.64 122.69-17.79L122.69-17.79L122.69-17.79Q122.69-26.94 127.81-31.71L127.81-31.71L127.81-31.71Q132.93-36.48 142.02-36.48L142.02-36.48L142.02-36.48Q151.04-36.48 155.04-31.78L155.04-31.78L155.04-31.78Q159.04-27.07 159.04-20.10L159.04-20.10L159.04-15.49L138.30-15.49L138.30-15.10L138.30-15.10Q138.30-12.74 139.71-11.62L139.71-11.62L139.71-11.62Q141.12-10.50 144.38-10.50L144.38-10.50L144.38-10.50Q148.29-10.50 151.81-11.07L151.81-11.07L151.81-11.07Q155.33-11.65 157.95-12.54L157.95-12.54L157.95-2.30L157.95-2.30Q155.71-1.09 151.39-0.10L151.39-0.10L151.39-0.10Q147.07 0.90 142.02 0.90L142.02 0.90ZM138.30-22.53L145.73-22.53L145.73-23.30L145.73-23.30Q145.73-25.47 144.80-26.43L144.80-26.43L144.80-26.43Q143.87-27.39 142.02-27.39L142.02-27.39L142.02-27.39Q140.16-27.39 139.23-26.40L139.23-26.40L139.23-26.40Q138.30-25.41 138.30-23.30L138.30-23.30L138.30-22.53ZM200.64-10.50L203.46-10.50L203.46 0L183.23 0L183.23-10.50L185.92-10.50L185.92-20.99L185.92-20.99Q185.92-23.10 185.02-24.10L185.02-24.10L185.02-24.10Q184.13-25.09 182.34-25.09L182.34-25.09L182.34-25.09Q178.50-25.09 178.50-20.99L178.50-20.99L178.50-10.50L181.18-10.50L181.18 0L160.96 0L160.96-10.50L163.78-10.50L163.78-25.09L160.96-25.09L160.96-35.58L178.50-35.58L178.50-30.59L178.50-30.59Q183.10-36.48 190.02-36.48L190.02-36.48L190.02-36.48Q195.33-36.48 197.98-33.15L197.98-33.15L197.98-33.15Q200.64-29.82 200.64-24L200.64-24L200.64-10.50ZM228.93 0L214.21 0L205.76-25.09L203.07-25.09L203.07-35.58L222.85-35.58L222.85-25.09L220.16-25.09L222.46-15.10L223.10-15.10L227.78-35.58L239.55-35.58L244.22-15.10L244.86-15.10L247.10-25.09L244.42-25.09L244.42-35.58L262.98-35.58L262.98-25.09L260.29-25.09L252.16 0L236.61 0L233.09-17.79L232.45-17.79L228.93 0ZM280.90-39.10L267.84-39.10L267.84-49.79L280.90-49.79L280.90-39.10ZM285.12 0L264.77 0L264.77-10.50L267.58-10.50L267.58-25.09L264.77-25.09L264.77-35.58L282.30-35.58L282.30-10.50L285.12-10.50L285.12 0ZM306.05 0.90L306.05 0.90Q296.90 0.90 291.78-3.87L291.78-3.87L291.78-3.87Q286.66-8.64 286.66-17.79L286.66-17.79L286.66-17.79Q286.66-26.94 291.78-31.71L291.78-31.71L291.78-31.71Q296.90-36.48 305.98-36.48L305.98-36.48L305.98-36.48Q310.40-36.48 314.43-35.26L314.43-35.26L314.43-35.26Q318.46-34.05 320.70-32.51L320.70-32.51L320.70-19.84L309.70-19.84L309.70-20.99L309.70-20.99Q309.70-23.10 308.80-24.10L308.80-24.10L308.80-24.10Q307.90-25.09 305.98-25.09L305.98-25.09L305.98-25.09Q302.27-25.09 302.27-20.99L302.27-20.99L302.27-15.49L302.27-15.49Q302.27-10.50 307.97-10.50L307.97-10.50L307.97-10.50Q313.28-10.50 320.32-11.65L320.32-11.65L320.32-1.60L320.32-1.60Q318.14-0.64 314.21 0.13L314.21 0.13L314.21 0.13Q310.27 0.90 306.05 0.90L306.05 0.90ZM362.56-10.50L365.38-10.50L365.38 0L345.15 0L345.15-10.50L347.84-10.50L347.84-20.99L347.84-20.99Q347.84-23.10 346.94-24.10L346.94-24.10L346.94-24.10Q346.05-25.09 344.26-25.09L344.26-25.09L344.26-25.09Q340.42-25.09 340.42-20.99L340.42-20.99L340.42-10.50L343.10-10.50L343.10 0L322.88 0L322.88-10.50L325.70-10.50L325.70-39.30L322.88-39.30L322.88-49.79L340.42-49.79L340.42-30.59L340.42-30.59Q342.78-33.54 345.54-35.01L345.54-35.01L345.54-35.01Q348.29-36.48 351.94-36.48L351.94-36.48L351.94-36.48Q357.25-36.48 359.90-33.15L359.90-33.15L359.90-33.15Q362.56-29.82 362.56-24L362.56-24L362.56-10.50ZM410.69 0.90L410.69 0.90Q400.64 0.90 395.17-3.52L395.17-3.52L395.17-3.52Q389.70-7.94 389.70-17.86L389.70-17.86L389.70-39.30L386.50-39.30L386.50-49.79L410.18-49.79L410.18-39.30L407.62-39.30L407.62-14.59L407.62-14.59Q407.62-12.48 408.54-11.49L408.54-11.49L408.54-11.49Q409.47-10.50 411.33-10.50L411.33-10.50L411.33-10.50Q413.18-10.50 414.11-11.49L414.11-11.49L414.11-11.49Q415.04-12.48 415.04-14.59L415.04-14.59L415.04-39.30L412.48-39.30L412.48-49.79L434.43-49.79L434.43-39.30L431.23-39.30L431.23-17.86L431.23-17.86Q431.23-7.94 425.92-3.52L425.92-3.52L425.92-3.52Q420.61 0.90 410.69 0.90L410.69 0.90ZM476.29-10.50L479.10-10.50L479.10 0L458.88 0L458.88-10.50L461.57-10.50L461.57-20.99L461.57-20.99Q461.57-23.10 460.67-24.10L460.67-24.10L460.67-24.10Q459.78-25.09 457.98-25.09L457.98-25.09L457.98-25.09Q454.14-25.09 454.14-20.99L454.14-20.99L454.14-10.50L456.83-10.50L456.83 0L436.61 0L436.61-10.50L439.42-10.50L439.42-25.09L436.61-25.09L436.61-35.58L454.14-35.58L454.14-30.59L454.14-30.59Q458.75-36.48 465.66-36.48L465.66-36.48L465.66-36.48Q470.98-36.48 473.63-33.15L473.63-33.15L473.63-33.15Q476.29-29.82 476.29-24L476.29-24L476.29-10.50ZM497.28-39.10L484.22-39.10L484.22-49.79L497.28-49.79L497.28-39.10ZM501.50 0L481.15 0L481.15-10.50L483.97-10.50L483.97-25.09L481.15-25.09L481.15-35.58L498.69-35.58L498.69-10.50L501.50-10.50L501.50 0ZM532.61 0L513.54 0L505.47-25.09L502.78-25.09L502.78-35.58L522.56-35.58L522.56-25.09L519.87-25.09L523.26-12.42L523.90-12.42L527.30-25.09L524.61-25.09L524.61-35.58L543.17-35.58L543.17-25.09L540.48-25.09L532.61 0ZM564.03 0.90L564.03 0.90Q554.94 0.90 549.82-3.87L549.82-3.87L549.82-3.87Q544.70-8.64 544.70-17.79L544.70-17.79L544.70-17.79Q544.70-26.94 549.82-31.71L549.82-31.71L549.82-31.71Q554.94-36.48 564.03-36.48L564.03-36.48L564.03-36.48Q573.06-36.48 577.06-31.78L577.06-31.78L577.06-31.78Q581.06-27.07 581.06-20.10L581.06-20.10L581.06-15.49L560.32-15.49L560.32-15.10L560.32-15.10Q560.32-12.74 561.73-11.62L561.73-11.62L561.73-11.62Q563.14-10.50 566.40-10.50L566.40-10.50L566.40-10.50Q570.30-10.50 573.82-11.07L573.82-11.07L573.82-11.07Q577.34-11.65 579.97-12.54L579.97-12.54L579.97-2.30L579.97-2.30Q577.73-1.09 573.41-0.10L573.41-0.10L573.41-0.10Q569.09 0.90 564.03 0.90L564.03 0.90ZM560.32-22.53L567.74-22.53L567.74-23.30L567.74-23.30Q567.74-25.47 566.82-26.43L566.82-26.43L566.82-26.43Q565.89-27.39 564.03-27.39L564.03-27.39L564.03-27.39Q562.18-27.39 561.25-26.40L561.25-26.40L561.25-26.40Q560.32-25.41 560.32-23.30L560.32-23.30L560.32-22.53ZM610.30-36.48L610.30-36.48Q611.58-36.48 612.74-36.22L612.74-36.22L612.74-36.22Q613.89-35.97 614.66-35.58L614.66-35.58L614.66-23.36L614.66-23.36Q612.03-24.45 609.02-24.45L609.02-24.45L609.02-24.45Q604.99-24.45 602.82-22.34L602.82-22.34L602.82-22.34Q600.64-20.22 600.64-16.06L600.64-16.06L600.64-10.50L606.40-10.50L606.40 0L583.10 0L583.10-10.50L585.92-10.50L585.92-25.09L583.10-25.09L583.10-35.58L600.64-35.58L600.64-30.91L600.64-30.91Q602.43-33.60 604.74-35.04L604.74-35.04L604.74-35.04Q607.04-36.48 610.30-36.48L610.30-36.48ZM635.84 0.90L635.84 0.90Q626.69 0.90 621.57-3.87L621.57-3.87L621.57-3.87Q616.45-8.64 616.45-17.79L616.45-17.79L616.45-17.79Q616.45-26.94 621.57-31.71L621.57-31.71L621.57-31.71Q626.69-36.48 635.78-36.48L635.78-36.48L635.78-36.48Q640.19-36.48 644.22-35.26L644.22-35.26L644.22-35.26Q648.26-34.05 650.50-32.51L650.50-32.51L650.50-19.84L639.49-19.84L639.49-20.99L639.49-20.99Q639.49-23.10 638.59-24.10L638.59-24.10L638.59-24.10Q637.70-25.09 635.78-25.09L635.78-25.09L635.78-25.09Q632.06-25.09 632.06-20.99L632.06-20.99L632.06-15.49L632.06-15.49Q632.06-10.50 637.76-10.50L637.76-10.50L637.76-10.50Q643.07-10.50 650.11-11.65L650.11-11.65L650.11-1.60L650.11-1.60Q647.94-0.64 644.00 0.13L644.00 0.13L644.00 0.13Q640.06 0.90 635.84 0.90L635.84 0.90ZM668.80-39.10L655.74-39.10L655.74-49.79L668.80-49.79L668.80-39.10ZM673.02 0L652.67 0L652.67-10.50L655.49-10.50L655.49-25.09L652.67-25.09L652.67-35.58L670.21-35.58L670.21-10.50L673.02-10.50L673.02 0ZM690.62 0.90L690.62 0.90Q683.84 0.90 680.42-2.40L680.42-2.40L680.42-2.40Q676.99-5.70 676.99-13.50L676.99-13.50L676.99-25.09L674.18-25.09L674.18-35.58L674.18-35.58Q676.61-35.58 677.82-36.83L677.82-36.83L677.82-36.83Q679.04-38.08 679.04-40.26L679.04-40.26L679.04-43.14L692.61-43.14L692.61-35.58L701.25-35.58L701.25-25.09L692.61-25.09L692.61-14.59L692.61-14.59Q692.61-12.48 693.54-11.49L693.54-11.49L693.54-11.49Q694.46-10.50 696.32-10.50L696.32-10.50L696.32-10.50Q698.75-10.50 701.63-11.07L701.63-11.07L701.63-1.02L701.63-1.02Q699.84-0.32 696.80 0.29L696.80 0.29L696.80 0.29Q693.76 0.90 690.62 0.90L690.62 0.90ZM724.42-35.58L742.21-35.58L742.21-25.09L739.78-25.09L731.39-2.88L731.39-2.88Q728.26 5.50 724.22 9.70L724.22 9.70L724.22 9.70Q720.19 13.89 713.60 13.89L713.60 13.89L713.60 13.89Q710.91 13.89 708.16 13.34L708.16 13.34L708.16 13.34Q705.41 12.80 703.17 11.84L703.17 11.84L703.17 0.26L712.00 0.26L712.00 0.90L712.00 0.90Q712.00 2.50 713.66 2.50L713.66 2.50L713.66 2.50Q715.14 2.50 715.90 1.09L715.90 1.09L705.79-25.09L703.36-25.09L703.36-35.58L722.37-35.58L722.37-25.09L720.19-25.09L723.52-15.10L726.59-25.09L724.42-25.09L724.42-35.58Z" fill="url(#editing-sticker-gradient)" stroke="#000" stroke-width="2.5"></path></g></g><style>text {
  font-size: 64px;
  font-family: Arial Black;
  dominant-baseline: central;
  text-anchor: middle;
}</style></svg>